<svg width="101" height="26" viewBox="0 0 101 26" fill="none" xmlns="http://www.w3.org/2000/svg">
<path d="M35.8633 25.0217V5.00366H44.7282C48.5859 5.00366 50.8777 7.31971 50.8777 10.1809C50.8777 12.6185 49.4471 14.2991 47.5026 14.8686C49.5895 15.2992 51.3048 16.9867 51.3048 19.7021C51.3048 22.7057 48.7318 25.0182 45.0094 25.0182H35.8633V25.0217ZM44.1552 13.2088C46.0129 13.2088 47.013 12.3789 47.013 10.8059C47.013 9.23298 46.0129 8.43086 44.1552 8.43086H39.7211V13.2053H44.1552V13.2088ZM44.4539 21.5841C46.3116 21.5841 47.454 20.7542 47.454 19.0389C47.454 17.3235 46.3116 16.5214 44.4539 16.5214H39.7245V21.5841H44.4539Z" fill="#0F1D30"/>
<path d="M62.1661 23.2787C61.3084 24.5079 59.791 25.31 57.9333 25.31C55.3603 25.31 53.2422 23.685 53.2422 21.1085C53.2422 18.0216 55.645 16.6153 58.4785 16.3896L62.0793 16.0736V15.7298C62.0793 14.4416 61.1939 13.4416 59.7632 13.4416H59.5896C58.1694 13.4416 57.3291 14.3305 57.2458 15.1569H53.5269C53.8117 12.4693 56.0999 10.438 59.6764 10.438C63.253 10.438 65.6836 12.2401 65.6836 15.5875V21.8828C65.6628 22.9349 65.7114 23.9836 65.826 25.0288H62.3363C62.2425 24.4489 62.1835 23.8621 62.1661 23.2787ZM58.8465 22.3065C60.5619 22.3065 62.0758 21.0495 62.0758 19.1883V18.782L58.9889 19.098C58.0444 19.1848 56.902 19.6709 56.902 20.8411C56.902 21.73 57.6729 22.2995 58.7042 22.2995L58.8465 22.3065Z" fill="#0F1D30"/>
<path d="M67.8672 20.3028H71.6694C71.6694 21.591 72.6417 22.4487 74.0723 22.4487H74.3014C75.4438 22.4487 76.1869 21.9035 76.1869 21.0493C76.1869 20.3028 75.7598 19.8757 74.7285 19.6291L72.8674 19.1708C69.8673 18.4277 68.4332 17.1672 68.4332 14.8512C68.4332 12.2782 70.6346 10.4482 74.2112 10.4482C77.93 10.4482 80.0482 12.3094 80.0482 15.4519H76.3293C76.1834 14.0803 75.4716 13.306 74.1834 13.306H73.9577C72.9576 13.306 72.1555 13.8477 72.1555 14.7053C72.1555 15.4762 72.8118 15.8755 73.982 16.1637L75.8952 16.6498C78.6419 17.3374 79.8989 18.6499 79.8989 20.9139C79.8989 23.3515 77.8953 25.3168 74.0375 25.3168C70.1798 25.3238 67.8672 23.4487 67.8672 20.3028Z" fill="#0F1D30"/>
<path d="M81.9336 5.00366H85.9372V8.86143H81.9336V5.00366ZM82.076 10.7226H85.7948V25.0217H82.076V10.7226Z" fill="#0F1D30"/>
<path d="M87.8203 20.3028H91.6225C91.6225 21.591 92.5948 22.4487 94.0254 22.4487H94.2511C95.397 22.4487 96.14 21.9035 96.14 21.0493C96.14 20.3028 95.713 19.8757 94.6817 19.6291L92.824 19.1708C89.8204 18.4277 88.3898 17.1672 88.3898 14.8512C88.3898 12.2782 90.5912 10.4482 94.1678 10.4482C97.8866 10.4482 100.001 12.3094 100.001 15.4519H96.2824C96.14 14.0803 95.4247 13.306 94.1365 13.306H93.9073C92.9073 13.306 92.1052 13.8477 92.1052 14.7053C92.1052 15.4762 92.7615 15.8755 93.9316 16.1637L95.8484 16.6498C98.595 17.3374 99.852 18.6499 99.852 20.9139C99.852 23.3515 97.8484 25.3168 93.9872 25.3168C90.1329 25.3238 87.8203 23.4487 87.8203 20.3028Z" fill="#0F1D30"/>
<path d="M12.9241 14.1985L0 16.8027V18.2333L12.9241 20.8376L25.8516 18.2333V16.8027L12.9241 14.1985Z" fill="#0F1D30"/>
<path d="M25.8551 23.5911H0V25.0217H25.8551V23.5911Z" fill="#0F1D30"/>
<path d="M12.9241 0L0 5.00712V6.43772L12.9241 11.4483L25.8516 6.43772V5.00712L12.9241 0Z" fill="#0F1D30"/>
</svg>
